<svg width="6" height="6" viewBox="0 0 6 6" fill="none" xmlns="http://www.w3.org/2000/svg">
<g clip-path="url(#clip0_1_127)">
<path d="M5.75 1V2.5M5.75 2.5H4.25M5.75 2.5L4.59 1.41C4.32131 1.14118 3.98891 0.944801 3.6238 0.839193C3.25869 0.733585 2.87278 0.722188 2.50207 0.806064C2.13137 0.889941 1.78795 1.06636 1.50387 1.31885C1.21978 1.57135 1.00429 1.8917 0.8775 2.25M0.25 5V3.5M0.25 3.5H1.75M0.25 3.5L1.41 4.59C1.67869 4.85882 2.01109 5.0552 2.3762 5.16081C2.74131 5.26641 3.12722 5.27781 3.49793 5.19394C3.86863 5.11006 4.21205 4.93364 4.49613 4.68114C4.78022 4.42865 4.99571 4.1083 5.1225 3.75" stroke="white" stroke-width="0.5" stroke-linecap="round" stroke-linejoin="round"/>
</g>
<defs>
<clipPath id="clip0_1_127">
<rect width="6" height="6" fill="white"/>
</clipPath>
</defs>
</svg>
